<?xml version="1.0"?>
<svg xmlns="http://www.w3.org/2000/svg" xmlns:xlink="http://www.w3.org/1999/xlink" viewBox="0 0 128 128" width="512" height="512"><defs><linearGradient id="linear-gradient" x1="113.362" y1="134.863" x2="14.359" y2="35.86" gradientUnits="userSpaceOnUse"><stop offset="0" stop-color="#ff8243"/><stop offset="1" stop-color="#ffe477"/></linearGradient></defs><g id="Layer_2" data-name="Layer 2"><path d="M61.648,52.207a3.426,3.426,0,0,1-.79-2.751l.709-4.687a1.75,1.75,0,1,1,3.461.523l-.7,4.608h1.876a1.75,1.75,0,0,1,0,3.5H64.25A3.428,3.428,0,0,1,61.648,52.207Zm59.6,58.626V126.25A1.75,1.75,0,0,1,119.5,128H52.25a1.75,1.75,0,0,1,0-3.5h3.121l3.265-8.708-4.076-6.325-3.244,1.494a1.776,1.776,0,0,1-2.174-.6L34.9,89.663l-6,.589A20.609,20.609,0,0,0,10.25,110.833V124.5H23.417V114.375a1.75,1.75,0,0,1,3.5,0V124.5h1.708a1.75,1.75,0,0,1,0,3.5H8.5a1.75,1.75,0,0,1-1.75-1.75V110.833A24.1,24.1,0,0,1,28.563,86.77l7.022-.69h0l7.887-.774a5.3,5.3,0,0,0,4.694-4.56l.969-7.579a23.794,23.794,0,0,1-7.487-10.628,58.4,58.4,0,0,1-1.679-6.871H34.24a12.072,12.072,0,0,1-3.5-23.627A33.286,33.286,0,0,1,83.416,6.226a1.75,1.75,0,1,1-2.043,2.842A29.793,29.793,0,0,0,34.262,31.52h3.023a26.773,26.773,0,0,1,53.431,0h3.023a29.64,29.64,0,0,0-4.73-14.442,1.75,1.75,0,0,1,2.937-1.9,33.128,33.128,0,0,1,5.3,16.864,12.063,12.063,0,0,1-.616,23.271v2.879a5.756,5.756,0,0,1-5.75,5.75h-.344a3.744,3.744,0,0,1-3.725,3.5H83.95a23.615,23.615,0,0,1-5.093,5.686l.974,7.622a5.317,5.317,0,0,0,4.694,4.56L99.436,86.77A24.1,24.1,0,0,1,121.25,110.833Zm-44.691-3.668L88.88,89.249c-2.875-.283-6.1-.207-8.609-1.829L66.75,102.647l6.523,3,0,0Zm1.216-22.2a8.765,8.765,0,0,1-1.415-3.773l-.744-5.817a23.606,23.606,0,0,1-23.231,0l-.744,5.817a8.762,8.762,0,0,1-1.523,3.933l13.757,15.492Zm9.286-24.274a.25.25,0,0,0-.25-.25h-7.5a.25.25,0,0,0-.25.25v3a.25.25,0,0,0,.25.25h7.5a.25.25,0,0,0,.25-.25Zm6.068-2.5V55.667h-5.1l-.3,1.4a3.739,3.739,0,0,1,2.812,3.375h.344A2.253,2.253,0,0,0,93.129,58.188ZM40.8,31.52h3.1A9.028,9.028,0,0,0,52.915,22.5,1.75,1.75,0,0,1,55.9,21.265l7.613,7.614a8.96,8.96,0,0,0,6.376,2.641H87.2a23.265,23.265,0,0,0-46.386-.163C40.809,31.411,40.8,31.465,40.8,31.52Zm49.971,3.5a55.845,55.845,0,0,1-.365,9.667c-.442,2.509-1.07,4.992-1.613,7.481H93.76a8.569,8.569,0,0,0,1.5-17.008,9.29,9.29,0,0,0-1.5-.139ZM39.207,52.167c-.543-2.487-1.17-4.97-1.613-7.478a55.787,55.787,0,0,1-.366-9.67,26.749,26.749,0,0,0-4.479.139A8.569,8.569,0,0,0,34.24,52.167ZM64,74.9a20.241,20.241,0,0,0,15.654-7.458h-.342a3.754,3.754,0,0,1-3.75-3.75v-3a3.754,3.754,0,0,1,3.75-3.75h4.855l.737-3.373c.581-2.828,1.24-5.641,1.849-8.462.714-3.308.518-6.719.518-10.083H69.892a12.438,12.438,0,0,1-8.851-3.666l-5.176-5.177A12.539,12.539,0,0,1,43.9,35.02H40.728c0,3.366-.2,6.778.519,10.087.609,2.821,1.278,5.633,1.848,8.462a53.462,53.462,0,0,0,2.223,8.777A20.323,20.323,0,0,0,64,74.9Zm-9.528,30.758,0,0,6.523-3L47.568,87.522c-2.529,1.559-5.815,1.469-8.686,1.751L51.19,107.165Zm3.3,2.335,3.767,5.845h4.674l3.767-5.845-6.1-2.811ZM68.64,124.5l-2.687-7.167H61.8L59.109,124.5Zm49.11-13.667A20.609,20.609,0,0,0,99.094,90.252l-6.234-.612L78.607,110.362a1.774,1.774,0,0,1-2.174.6l-3.244-1.494-4.076,6.325,3.265,8.708h28.454V114.375a1.75,1.75,0,0,1,3.5,0V124.5H117.75ZM42.625,124.5H38.25a1.75,1.75,0,0,0,0,3.5h4.375a1.75,1.75,0,0,0,0-3.5ZM53,44.583a4.167,4.167,0,1,0-4.167-4.166A4.171,4.171,0,0,0,53,44.583Zm20.6,0a4.167,4.167,0,1,0-4.167-4.166A4.171,4.171,0,0,0,73.6,44.583ZM56.086,57.691a1.75,1.75,0,0,0-.239,2.463A10.374,10.374,0,0,0,63.875,63.5,10.376,10.376,0,0,0,71.9,60.156a1.75,1.75,0,0,0-2.7-2.227A6.985,6.985,0,0,1,63.875,60a6.982,6.982,0,0,1-5.326-2.07A1.752,1.752,0,0,0,56.086,57.691Z" style="fill:url(#linear-gradient)"/></g></svg>
