<svg id="Capa_1" enable-background="new 0 0 512 512" height="512" viewBox="0 0 512 512" width="512" xmlns="http://www.w3.org/2000/svg" xmlns:xlink="http://www.w3.org/1999/xlink"><linearGradient id="SVGID_1_" gradientUnits="userSpaceOnUse" x1="256" x2="256" y1="512" y2="0"><stop offset="0" stop-color="#00b59c"/><stop offset="1" stop-color="#9cffac"/></linearGradient><g><g><path d="m481 211c0-25.819-10.943-49.844-30.263-66.969-3.503-46.338-42.132-84.031-89.737-84.031-3.367 0-6.745.225-10.237.69-17.052-36.792-53.624-60.69-94.763-60.69-41.138 0-77.711 23.898-94.763 60.69-3.492-.465-6.87-.69-10.237-.69-47.597 0-86.233 37.683-89.737 84.031-19.32 17.125-30.263 41.15-30.263 66.969 0 38.704 24.576 72.343 60.167 84.767-.112 1.753-.167 3.495-.167 5.233 0 39.221 25.454 73.504 61.949 85.443 8.486 72.307 51.531 125.557 103.051 125.557s94.565-53.25 103.051-125.557c36.495-11.939 61.949-46.222 61.949-85.443 0-1.738-.055-3.48-.167-5.233 35.591-12.424 60.167-46.063 60.167-84.767zm-79.51 58.909c-8.408 1.488-13.883 9.694-12.029 18.028 1.036 4.656 1.539 8.928 1.539 13.063 0 28.722-20.49 53.47-48.72 58.846-6.703 1.276-11.7 6.916-12.16 13.724-4.109 60.802-36.666 108.43-74.12 108.43s-70.011-47.628-74.121-108.43c-.46-6.808-5.457-12.447-12.16-13.724-28.229-5.376-48.719-30.124-48.719-58.846 0-4.135.503-8.407 1.539-13.063 1.854-8.335-3.621-16.54-12.029-18.028-28.688-5.075-49.51-29.85-49.51-58.909 0-18.777 8.772-36.169 24.068-47.715 3.974-3 6.245-7.813 5.935-12.908.329-33.35 27.117-60.377 59.997-60.377 4.692 0 9.67.76 15.668 2.391 7.76 2.111 15.801-2.271 18.234-9.936 9.96-31.375 38.532-52.455 71.098-52.455s61.138 21.08 71.098 52.455c2.433 7.664 10.478 12.045 18.234 9.936 5.998-1.631 10.976-2.391 15.668-2.391 32.88 0 59.668 27.028 59.997 60.378-.31 5.068 1.941 9.892 5.935 12.907 15.296 11.546 24.068 28.938 24.068 47.715 0 29.059-20.822 53.834-49.51 58.909zm-32.198-87.326-98.292 49.146v-56.459l51.708-25.854c7.41-3.705 10.413-12.715 6.708-20.125s-12.716-10.413-20.125-6.708l-38.291 19.146v-66.729c0-8.284-6.716-15-15-15s-15 6.716-15 15v66.729l-38.292-19.146c-7.409-3.704-16.42-.701-20.125 6.708-3.705 7.41-.701 16.42 6.708 20.125l51.709 25.855v56.459l-98.292-49.146c-7.409-3.704-16.42-.701-20.125 6.708-3.705 7.41-.701 16.42 6.708 20.125l111.709 55.854v54.237l-52.283-31.369c-7.103-4.262-16.317-1.959-20.58 5.145-4.262 7.104-1.959 16.318 5.145 20.58l67.718 40.629v82.507c0 8.284 6.716 15 15 15s15-6.716 15-15v-82.507l67.717-40.63c7.104-4.262 9.407-13.476 5.145-20.58-4.261-7.104-13.477-9.408-20.58-5.145l-52.282 31.369v-54.237l111.708-55.854c7.41-3.705 10.413-12.715 6.708-20.125-3.704-7.409-12.716-10.412-20.124-6.708z" fill="url(#SVGID_1_)"/></g></g></svg>