<?xml version="1.0"?>
<svg xmlns="http://www.w3.org/2000/svg" xmlns:xlink="http://www.w3.org/1999/xlink" width="512" height="512" viewBox="0 0 128 128"><defs><linearGradient id="a" x1="111.984" y1="106.48" x2="21.517" y2="16.013" gradientUnits="userSpaceOnUse"><stop offset="0" stop-color="#0d70b2"/><stop offset="1" stop-color="#00ddc1"/></linearGradient></defs><path d="M80.631,109.327a1.749,1.749,0,0,1,.955-2.283,46.574,46.574,0,0,0,6.813-3.477,1.75,1.75,0,1,1,1.842,2.977,50.217,50.217,0,0,1-7.327,3.738,1.749,1.749,0,0,1-2.283-.955Zm43.056-68.358a1.748,1.748,0,0,0-1.631-1.118h-2.4a1.659,1.659,0,0,0-.256.019L106.7,39.8h-.01a1.749,1.749,0,0,0-1.546,2.567A46.385,46.385,0,0,1,101,92.134a1.75,1.75,0,0,0,2.783,2.123A49.5,49.5,0,0,0,114,64a50.023,50.023,0,0,0-4.494-20.682l10.137.056a.716.716,0,0,0,.27-.02h.932A60.486,60.486,0,1,1,64,3.5,1.75,1.75,0,0,0,64,0a64.085,64.085,0,1,0,59.687,40.972ZM79.1,5.4a60.13,60.13,0,0,1,18.519,8.317,1.75,1.75,0,0,0,2.212-.216l5.1-5.1,4.787,4.788.124,18.6-18.6-.123-4.787-4.788,3.215-3.215a1.749,1.749,0,0,0-.348-2.744A49.986,49.986,0,1,0,64,114a1.75,1.75,0,0,0,0-3.5A46.5,46.5,0,1,1,85.554,22.825L82.739,25.64a1.75,1.75,0,0,0,0,2.474l6.532,6.533a1.749,1.749,0,0,0,1.226.513l21.09.14h.012a1.752,1.752,0,0,0,1.75-1.762l-.141-21.09a1.749,1.749,0,0,0-.513-1.225L106.163,4.69a1.8,1.8,0,0,0-2.475,0l-5.331,5.332A63.554,63.554,0,0,0,79.968,2.014,1.749,1.749,0,1,0,79.1,5.4ZM60.657,77.244a1.75,1.75,0,1,0,0-3.5H45.883V71.262a2.862,2.862,0,0,1,1.557-2.554l11.51-5.921A6.371,6.371,0,0,0,56.035,50.75h-11.9a1.749,1.749,0,0,0-1.75,1.75v5.508a1.75,1.75,0,0,0,3.5,0V54.25H56.035a2.872,2.872,0,0,1,1.314,5.425L45.839,65.6a6.344,6.344,0,0,0-3.456,5.665v4.232a1.749,1.749,0,0,0,1.75,1.75Zm6.686-11.5H82.117v9.747a1.75,1.75,0,0,0,3.5,0V52.5a1.75,1.75,0,0,0-3.5,0v9.747H70.356l5.069-8.88a1.749,1.749,0,1,0-3.039-1.734l-6.563,11.5a1.749,1.749,0,0,0,1.52,2.617ZM64,34.127a1.749,1.749,0,0,0,1.75-1.75V24a1.75,1.75,0,1,0-3.5,0v8.375A1.749,1.749,0,0,0,64,34.127Zm0,71.615a1.749,1.749,0,0,0,1.75-1.75V95.617a1.75,1.75,0,0,0-3.5,0v8.375A1.749,1.749,0,0,0,64,105.742ZM40.4,42.875A1.75,1.75,0,1,0,42.878,40.4l-5.922-5.922a1.75,1.75,0,0,0-2.475,2.475ZM93.519,93.516a1.751,1.751,0,0,0,0-2.475L87.6,85.119a1.75,1.75,0,0,0-2.475,2.475l5.922,5.922a1.752,1.752,0,0,0,2.475,0Zm-57.8.512a1.746,1.746,0,0,0,1.237-.512l5.922-5.922A1.75,1.75,0,1,0,40.4,85.119l-5.922,5.922a1.75,1.75,0,0,0,1.238,2.987ZM32.38,62.247H24.005a1.75,1.75,0,1,0,0,3.5H32.38a1.75,1.75,0,1,0,0-3.5Zm63.24,3.5H104a1.75,1.75,0,0,0,0-3.5H95.62a1.75,1.75,0,0,0,0,3.5Z" fill="url(#a)"/></svg>
